<?xml version="1.0" encoding="UTF-8" standalone="no"?>
<!-- Created with Inkscape (http://www.inkscape.org/) -->

<svg
   xmlns:dc="http://purl.org/dc/elements/1.1/"
   xmlns:cc="http://creativecommons.org/ns#"
   xmlns:rdf="http://www.w3.org/1999/02/22-rdf-syntax-ns#"
   xmlns:svg="http://www.w3.org/2000/svg"
   xmlns="http://www.w3.org/2000/svg"
   xmlns:sodipodi="http://sodipodi.sourceforge.net/DTD/sodipodi-0.dtd"
   xmlns:inkscape="http://www.inkscape.org/namespaces/inkscape"
   width="210mm"
   height="297mm"
   id="svg2"
   version="1.1"
   inkscape:version="0.48.2 r9819"
   sodipodi:docname="tab.svg">
  <defs
     id="defs4" />
  <sodipodi:namedview
     id="base"
     pagecolor="#ffffff"
     bordercolor="#666666"
     borderopacity="1.0"
     inkscape:pageopacity="0.0"
     inkscape:pageshadow="2"
     inkscape:zoom="1.8101934"
     inkscape:cx="379.04864"
     inkscape:cy="954.10866"
     inkscape:document-units="px"
     inkscape:current-layer="layer1"
     showgrid="false"
     inkscape:window-width="1378"
     inkscape:window-height="769"
     inkscape:window-x="0"
     inkscape:window-y="0"
     inkscape:window-maximized="0" />
  <metadata
     id="metadata7">
    <rdf:RDF>
      <cc:Work
         rdf:about="">
        <dc:format>image/svg+xml</dc:format>
        <dc:type
           rdf:resource="http://purl.org/dc/dcmitype/StillImage" />
        <dc:title></dc:title>
      </cc:Work>
    </rdf:RDF>
  </metadata>
  <g
     inkscape:label="レイヤー 1"
     inkscape:groupmode="layer"
     id="layer1">
    <text
       xml:space="preserve"
       style="font-size:40px;font-style:normal;font-variant:normal;font-weight:normal;font-stretch:normal;line-height:125%;letter-spacing:0px;word-spacing:0px;fill:#ffffff;fill-opacity:1;stroke:#ffffff;stroke-width:2;stroke-linecap:round;stroke-miterlimit:4;stroke-opacity:1;stroke-dasharray:none;font-family:'ヒラギノ丸ゴ Pro';-inkscape-font-specification:'ヒラギノ丸ゴ Pro'"
       x="166.91708"
       y="138.25467"
       id="text3847"
       sodipodi:linespacing="125%"><tspan
         sodipodi:role="line"
         id="tspan3849"
         x="166.91708"
         y="138.25467"
         style="font-size:40px;font-style:normal;font-variant:normal;font-weight:bold;font-stretch:normal;fill:#ffffff;fill-opacity:1;stroke:#ffffff;stroke-width:2;stroke-linecap:round;stroke-miterlimit:4;stroke-opacity:1;stroke-dasharray:none;font-family:'ヒラギノ丸ゴ Pro';-inkscape-font-specification:'ヒラギノ丸ゴ Pro Bold'">解  説</tspan></text>
    <path
       id="path3806"
       d="m 72.103338,97.95467 c -6.27578,0 -11.3125,5.06797 -11.3125,11.34375 l 0,23.8125 0,3.53125 0,11.3125 11.3125,0 297.343752,0 11.34375,0 0,-11.3125 0,-3.53125 0,-23.8125 c 0,-6.27578 -5.06797,-11.34375 -11.34375,-11.34375 l -297.343752,0 z"
       style="fill:#68d0c3;fill-opacity:1;fill-rule:nonzero;stroke:none"
       inkscape:connector-curvature="0" />
    <path
       inkscape:connector-curvature="0"
       style="fill:#8aeacb;fill-opacity:1;fill-rule:nonzero;stroke:none"
       d="m 76.749828,102.95467 c -6.07966,0 -10.95899,4.56118 -10.95899,10.20937 l 0,21.43125 0,3.17813 0,10.18125 10.95899,0 288.051752,0 10.98926,0 0,-10.18125 0,-3.17813 0,-21.43125 c 0,-5.64819 -4.90959,-10.20937 -10.98926,-10.20937 l -288.051752,0 z"
       id="path3808" />
    <text
       sodipodi:linespacing="125%"
       id="text3948"
       y="138.25467"
       x="166.91708"
       style="font-size:36px;font-style:normal;font-variant:normal;font-weight:normal;font-stretch:normal;line-height:125%;letter-spacing:0px;word-spacing:0px;fill:#ffffff;fill-opacity:1;stroke:#ffffff;stroke-width:2;stroke-linecap:round;stroke-miterlimit:4;stroke-opacity:1;stroke-dasharray:none;font-family:'ヒラギノ丸ゴ Pro';-inkscape-font-specification:'ヒラギノ丸ゴ Pro'"
       xml:space="preserve"><tspan
         style="font-size:36px;font-style:normal;font-variant:normal;font-weight:bold;font-stretch:normal;fill:#ffffff;fill-opacity:1;stroke:#ffffff;stroke-width:2;stroke-linecap:round;stroke-miterlimit:4;stroke-opacity:1;stroke-dasharray:none;font-family:'ヒラギノ丸ゴ Pro';-inkscape-font-specification:'ヒラギノ丸ゴ Pro Bold'"
         y="138.25467"
         x="166.91708"
         id="tspan3950"
         sodipodi:role="line">解  説</tspan></text>
    <g
       id="g3810"
       transform="translate(1.6572815,-137.00194)">
      <path
         id="path3812"
         d="m 69.341202,306.21972 c -6.27578,0 -11.3125,5.06797 -11.3125,11.34375 l 0,23.8125 0,3.53125 0,11.3125 11.3125,0 297.343748,0 11.34375,0 0,-11.3125 0,-3.53125 0,-23.8125 c 0,-6.27578 -5.06797,-11.34375 -11.34375,-11.34375 l -297.343748,0 z"
         style="fill:#8aeacb;fill-opacity:1;fill-rule:nonzero;stroke:none"
         inkscape:connector-curvature="0" />
      <path
         inkscape:connector-curvature="0"
         style="fill:#68d0c3;fill-opacity:1;fill-rule:nonzero;stroke:none"
         d="m 73.987692,311.21972 c -6.07966,0 -10.95899,4.56118 -10.95899,10.20937 l 0,21.43125 0,3.17813 0,10.18125 10.95899,0 288.051748,0 10.98926,0 0,-10.18125 0,-3.17813 0,-21.43125 c 0,-5.64819 -4.90959,-10.20937 -10.98926,-10.20937 l -288.051748,0 z"
         id="path3814" />
    </g>
    <text
       xml:space="preserve"
       style="font-size:36px;font-style:normal;font-variant:normal;font-weight:normal;font-stretch:normal;line-height:125%;letter-spacing:0px;word-spacing:0px;fill:#ffffff;fill-opacity:1;stroke:#ffffff;stroke-width:2;stroke-linecap:round;stroke-miterlimit:4;stroke-opacity:1;stroke-dasharray:none;font-family:'ヒラギノ丸ゴ Pro';-inkscape-font-specification:'ヒラギノ丸ゴ Pro'"
       x="165.81223"
       y="209.51778"
       id="text3957"
       sodipodi:linespacing="125%"><tspan
         sodipodi:role="line"
         id="tspan3959"
         x="165.81223"
         y="209.51778"
         style="font-size:36px;font-style:normal;font-variant:normal;font-weight:bold;font-stretch:normal;fill:#ffffff;fill-opacity:1;stroke:#ffffff;stroke-width:2;stroke-linecap:round;stroke-miterlimit:4;stroke-opacity:1;stroke-dasharray:none;font-family:'ヒラギノ丸ゴ Pro';-inkscape-font-specification:'ヒラギノ丸ゴ Pro Bold'">解  説</tspan></text>
    <g
       id="g3788"
       transform="translate(-36.460194,-2.7621359)">
      <path
         id="rect2985"
         d="m 106.90625,237.71875 c -6.27578,0 -11.3125,5.06797 -11.3125,11.34375 l 0,23.8125 0,3.53125 0,11.3125 11.3125,0 297.34375,0 11.34375,0 0,-11.3125 0,-3.53125 0,-23.8125 c 0,-6.27578 -5.06797,-11.34375 -11.34375,-11.34375 l -297.34375,0 z"
         style="fill:#68d0c3;fill-opacity:1;fill-rule:nonzero;stroke:none"
         inkscape:connector-curvature="0" />
      <path
         inkscape:connector-curvature="0"
         style="fill:#8aeacb;fill-opacity:1;fill-rule:nonzero;stroke:none"
         d="m 111.55274,242.71875 c -6.07966,0 -10.95899,4.56118 -10.95899,10.20937 l 0,21.43125 0,3.17813 0,10.18125 10.95899,0 288.05175,0 10.98926,0 0,-10.18125 0,-3.17813 0,-21.43125 c 0,-5.64819 -4.90959,-10.20937 -10.98926,-10.20937 l -288.05175,0 z"
         id="path3778" />
    </g>
    <text
       sodipodi:linespacing="125%"
       id="text3961"
       y="274.69662"
       x="164.15981"
       style="font-size:36px;font-style:normal;font-variant:normal;font-weight:normal;font-stretch:normal;line-height:125%;letter-spacing:0px;word-spacing:0px;fill:#ffffff;fill-opacity:1;stroke:#ffffff;stroke-width:2;stroke-linecap:round;stroke-miterlimit:4;stroke-opacity:1;stroke-dasharray:none;font-family:'ヒラギノ丸ゴ Pro';-inkscape-font-specification:'ヒラギノ丸ゴ Pro'"
       xml:space="preserve"><tspan
         style="font-size:36px;font-style:normal;font-variant:normal;font-weight:bold;font-stretch:normal;fill:#ffffff;fill-opacity:1;stroke:#ffffff;stroke-width:2;stroke-linecap:round;stroke-miterlimit:4;stroke-opacity:1;stroke-dasharray:none;font-family:'ヒラギノ丸ゴ Pro';-inkscape-font-specification:'ヒラギノ丸ゴ Pro Bold'"
         y="274.69662"
         x="164.15981"
         id="tspan3963"
         sodipodi:role="line">問  題</tspan></text>
    <g
       id="g3800">
      <path
         inkscape:connector-curvature="0"
         style="fill:#8aeacb;fill-opacity:1;fill-rule:nonzero;stroke:none"
         d="m 69.341202,306.21972 c -6.27578,0 -11.3125,5.06797 -11.3125,11.34375 l 0,23.8125 0,3.53125 0,11.3125 11.3125,0 297.343748,0 11.34375,0 0,-11.3125 0,-3.53125 0,-23.8125 c 0,-6.27578 -5.06797,-11.34375 -11.34375,-11.34375 l -297.343748,0 z"
         id="path3794" />
      <path
         id="path3796"
         d="m 73.987692,311.21972 c -6.07966,0 -10.95899,4.56118 -10.95899,10.20937 l 0,21.43125 0,3.17813 0,10.18125 10.95899,0 288.051748,0 10.98926,0 0,-10.18125 0,-3.17813 0,-21.43125 c 0,-5.64819 -4.90959,-10.20937 -10.98926,-10.20937 l -288.051748,0 z"
         style="fill:#68d0c3;fill-opacity:1;fill-rule:nonzero;stroke:none"
         inkscape:connector-curvature="0" />
    </g>
    <text
       xml:space="preserve"
       style="font-size:36px;font-style:normal;font-variant:normal;font-weight:normal;font-stretch:normal;line-height:125%;letter-spacing:0px;word-spacing:0px;fill:#ffffff;fill-opacity:1;stroke:#ffffff;stroke-width:2;stroke-linecap:round;stroke-miterlimit:4;stroke-opacity:1;stroke-dasharray:none;font-family:'ヒラギノ丸ゴ Pro';-inkscape-font-specification:'ヒラギノ丸ゴ Pro'"
       x="163.05495"
       y="345.95972"
       id="text3975"
       sodipodi:linespacing="125%"><tspan
         sodipodi:role="line"
         id="tspan3977"
         x="163.05495"
         y="345.95972"
         style="font-size:36px;font-style:normal;font-variant:normal;font-weight:bold;font-stretch:normal;fill:#ffffff;fill-opacity:1;stroke:#ffffff;stroke-width:2;stroke-linecap:round;stroke-miterlimit:4;stroke-opacity:1;stroke-dasharray:none;font-family:'ヒラギノ丸ゴ Pro';-inkscape-font-specification:'ヒラギノ丸ゴ Pro Bold'">問  題</tspan></text>
    <text
       sodipodi:linespacing="125%"
       id="text3030"
       y="73.068268"
       x="298.94717"
       style="font-size:40px;font-style:normal;font-variant:normal;font-weight:normal;font-stretch:normal;line-height:125%;letter-spacing:0px;word-spacing:0px;fill:#ffffff;fill-opacity:1;stroke:#ffffff;stroke-width:2;stroke-linecap:round;stroke-miterlimit:4;stroke-opacity:1;stroke-dasharray:none;font-family:'ヒラギノ丸ゴ Pro';-inkscape-font-specification:'ヒラギノ丸ゴ Pro'"
       xml:space="preserve"><tspan
         style="font-size:40px;font-style:normal;font-variant:normal;font-weight:bold;font-stretch:normal;fill:#ffffff;fill-opacity:1;stroke:#ffffff;stroke-width:2;stroke-linecap:round;stroke-miterlimit:4;stroke-opacity:1;stroke-dasharray:none;font-family:'ヒラギノ丸ゴ Pro';-inkscape-font-specification:'ヒラギノ丸ゴ Pro Bold'"
         y="73.068268"
         x="298.94717"
         id="tspan3032"
         sodipodi:role="line">解  説</tspan></text>
    <g
       id="g3821"
       transform="translate(208.81747,64.633978)"
       inkscape:export-filename="/Users/ken/Desktop/kaisetsu_tab_off_2.png"
       inkscape:export-xdpi="70"
       inkscape:export-ydpi="70">
      <g
         id="g3811">
        <path
           inkscape:connector-curvature="0"
           style="fill:#338475;fill-opacity:1;fill-rule:nonzero;stroke:none"
           d="m 204.13343,32.768265 c -6.27578,0 -11.3125,5.06797 -11.3125,11.34375 l 0,23.8125 0,3.53125 0,11.3125 11.3125,0 297.34375,0 11.34375,0 0,-11.3125 0,-3.53125 0,-23.8125 c 0,-6.27578 -5.06797,-11.34375 -11.34375,-11.34375 l -297.34375,0 z"
           id="path3034" />
        <path
           id="path3036"
           d="m 208.77992,37.768265 c -6.07966,0 -10.95899,4.56118 -10.95899,10.20937 l 0,21.43125 0,3.17813 0,10.18125 10.95899,0 288.05175,0 10.98926,0 0,-10.18125 0,-3.17813 0,-21.43125 c 0,-5.64819 -4.90959,-10.20937 -10.98926,-10.20937 l -288.05175,0 z"
           style="fill:#8aeacb;fill-opacity:1;fill-rule:nonzero;stroke:none"
           inkscape:connector-curvature="0" />
      </g>
      <text
         sodipodi:linespacing="125%"
         id="text3038"
         y="71.538261"
         x="304.33456"
         style="font-size:36px;font-style:normal;font-variant:normal;font-weight:normal;font-stretch:normal;line-height:125%;letter-spacing:0px;word-spacing:0px;fill:#ffffff;fill-opacity:1;stroke:#ffffff;stroke-width:2;stroke-linecap:round;stroke-miterlimit:4;stroke-opacity:1;stroke-dasharray:none;font-family:'ヒラギノ丸ゴ Pro';-inkscape-font-specification:'ヒラギノ丸ゴ Pro'"
         xml:space="preserve"><tspan
           style="font-size:36px;font-style:normal;font-variant:normal;font-weight:bold;font-stretch:normal;fill:#ffffff;fill-opacity:1;stroke:#ffffff;stroke-width:2;stroke-linecap:round;stroke-miterlimit:4;stroke-opacity:1;stroke-dasharray:none;font-family:'ヒラギノ丸ゴ Pro';-inkscape-font-specification:'ヒラギノ丸ゴ Pro Bold'"
           y="71.538261"
           x="304.33456"
           id="tspan3040"
           sodipodi:role="line">解  説</tspan></text>
    </g>
    <g
       id="g3832"
       inkscape:export-filename="/Users/ken/Desktop/mondai_tab_off_2.png"
       inkscape:export-xdpi="70"
       inkscape:export-ydpi="70">
      <g
         transform="translate(207.16018,136.44951)"
         id="g3815">
        <path
           id="path3817"
           d="m 204.13343,32.768265 c -6.27578,0 -11.3125,5.06797 -11.3125,11.34375 l 0,23.8125 0,3.53125 0,11.3125 11.3125,0 297.34375,0 11.34375,0 0,-11.3125 0,-3.53125 0,-23.8125 c 0,-6.27578 -5.06797,-11.34375 -11.34375,-11.34375 l -297.34375,0 z"
           style="fill:#338475;fill-opacity:1;fill-rule:nonzero;stroke:none"
           inkscape:connector-curvature="0" />
        <path
           inkscape:connector-curvature="0"
           style="fill:#8aeacb;fill-opacity:1;fill-rule:nonzero;stroke:none"
           d="m 208.77992,37.768265 c -6.07966,0 -10.95899,4.56118 -10.95899,10.20937 l 0,21.43125 0,3.17813 0,10.18125 10.95899,0 288.05175,0 10.98926,0 0,-10.18125 0,-3.17813 0,-21.43125 c 0,-5.64819 -4.90959,-10.20937 -10.98926,-10.20937 l -288.05175,0 z"
           id="path3819" />
      </g>
      <text
         sodipodi:linespacing="125%"
         id="text3828"
         y="207.48378"
         x="510.50473"
         style="font-size:36px;font-style:normal;font-variant:normal;font-weight:normal;font-stretch:normal;line-height:125%;letter-spacing:0px;word-spacing:0px;fill:#ffffff;fill-opacity:1;stroke:#ffffff;stroke-width:2;stroke-linecap:round;stroke-miterlimit:4;stroke-opacity:1;stroke-dasharray:none;font-family:'ヒラギノ丸ゴ Pro';-inkscape-font-specification:'ヒラギノ丸ゴ Pro'"
         xml:space="preserve"><tspan
           style="font-size:36px;font-style:normal;font-variant:normal;font-weight:bold;font-stretch:normal;fill:#ffffff;fill-opacity:1;stroke:#ffffff;stroke-width:2;stroke-linecap:round;stroke-miterlimit:4;stroke-opacity:1;stroke-dasharray:none;font-family:'ヒラギノ丸ゴ Pro';-inkscape-font-specification:'ヒラギノ丸ゴ Pro Bold'"
           y="207.48378"
           x="510.50473"
           id="tspan3830"
           sodipodi:role="line">問  題</tspan></text>
    </g>
    <g
       id="g3880"
       inkscape:export-filename="/Users/ken/Desktop/kaisetsu_tab_on_2.png"
       inkscape:export-xdpi="70"
       inkscape:export-ydpi="70">
      <g
         id="g3863">
        <g
           transform="translate(339.7427,-72.367962)"
           id="g3839">
          <path
             inkscape:connector-curvature="0"
             style="fill:#338475;fill-opacity:1;fill-rule:nonzero;stroke:none"
             d="m 69.341202,306.21972 c -6.27578,0 -11.3125,5.06797 -11.3125,11.34375 l 0,23.8125 0,3.53125 0,11.3125 11.3125,0 297.343748,0 11.34375,0 0,-11.3125 0,-3.53125 0,-23.8125 c 0,-6.27578 -5.06797,-11.34375 -11.34375,-11.34375 l -297.343748,0 z"
             id="path3841" />
          <path
             id="path3843"
             d="m 73.987692,311.21972 c -6.07966,0 -10.95899,4.56118 -10.95899,10.20937 l 0,21.43125 0,3.17813 0,10.18125 10.95899,0 288.051748,0 10.98926,0 0,-10.18125 0,-3.17813 0,-21.43125 c 0,-5.64819 -4.90959,-10.20937 -10.98926,-10.20937 l -288.051748,0 z"
             style="fill:#68d0c3;fill-opacity:1;fill-rule:nonzero;stroke:none"
             inkscape:connector-curvature="0" />
        </g>
      </g>
      <text
         xml:space="preserve"
         style="font-size:36px;font-style:normal;font-variant:normal;font-weight:normal;font-stretch:normal;line-height:125%;letter-spacing:0px;word-spacing:0px;fill:#ffffff;fill-opacity:1;stroke:#ffffff;stroke-width:2;stroke-linecap:round;stroke-miterlimit:4;stroke-opacity:1;stroke-dasharray:none;font-family:'ヒラギノ丸ゴ Pro';-inkscape-font-specification:'ヒラギノ丸ゴ Pro'"
         x="509.28503"
         y="272.62177"
         id="text3859"
         sodipodi:linespacing="125%"><tspan
           sodipodi:role="line"
           id="tspan3861"
           x="509.28503"
           y="272.62177"
           style="font-size:36px;font-style:normal;font-variant:normal;font-weight:bold;font-stretch:normal;fill:#ffffff;fill-opacity:1;stroke:#ffffff;stroke-width:2;stroke-linecap:round;stroke-miterlimit:4;stroke-opacity:1;stroke-dasharray:none;font-family:'ヒラギノ丸ゴ Pro';-inkscape-font-specification:'ヒラギノ丸ゴ Pro Bold'">解  説</tspan></text>
    </g>
    <g
       id="g3888"
       inkscape:export-filename="/Users/ken/Desktop/mondai_tab_on_2.png"
       inkscape:export-xdpi="70"
       inkscape:export-ydpi="70">
      <g
         transform="translate(0,71.815531)"
         id="g3868">
        <g
           id="g3870"
           transform="translate(339.7427,-72.367962)">
          <path
             id="path3872"
             d="m 69.341202,306.21972 c -6.27578,0 -11.3125,5.06797 -11.3125,11.34375 l 0,23.8125 0,3.53125 0,11.3125 11.3125,0 297.343748,0 11.34375,0 0,-11.3125 0,-3.53125 0,-23.8125 c 0,-6.27578 -5.06797,-11.34375 -11.34375,-11.34375 l -297.343748,0 z"
             style="fill:#338475;fill-opacity:1;fill-rule:nonzero;stroke:none"
             inkscape:connector-curvature="0" />
          <path
             inkscape:connector-curvature="0"
             style="fill:#68d0c3;fill-opacity:1;fill-rule:nonzero;stroke:none"
             d="m 73.987692,311.21972 c -6.07966,0 -10.95899,4.56118 -10.95899,10.20937 l 0,21.43125 0,3.17813 0,10.18125 10.95899,0 288.051748,0 10.98926,0 0,-10.18125 0,-3.17813 0,-21.43125 c 0,-5.64819 -4.90959,-10.20937 -10.98926,-10.20937 l -288.051748,0 z"
             id="path3874" />
        </g>
      </g>
      <text
         sodipodi:linespacing="125%"
         id="text3876"
         y="343.93329"
         x="508.29501"
         style="font-size:36px;font-style:normal;font-variant:normal;font-weight:normal;font-stretch:normal;line-height:125%;letter-spacing:0px;word-spacing:0px;fill:#ffffff;fill-opacity:1;stroke:#ffffff;stroke-width:2;stroke-linecap:round;stroke-miterlimit:4;stroke-opacity:1;stroke-dasharray:none;font-family:'ヒラギノ丸ゴ Pro';-inkscape-font-specification:'ヒラギノ丸ゴ Pro'"
         xml:space="preserve"><tspan
           style="font-size:36px;font-style:normal;font-variant:normal;font-weight:bold;font-stretch:normal;fill:#ffffff;fill-opacity:1;stroke:#ffffff;stroke-width:2;stroke-linecap:round;stroke-miterlimit:4;stroke-opacity:1;stroke-dasharray:none;font-family:'ヒラギノ丸ゴ Pro';-inkscape-font-specification:'ヒラギノ丸ゴ Pro Bold'"
           y="343.93329"
           x="508.29501"
           id="tspan3878"
           sodipodi:role="line">問  題</tspan></text>
    </g>
  </g>
</svg>
